<?xml version="1.0" standalone="no"?>
<!DOCTYPE svg PUBLIC "-//W3C//DTD SVG 20010904//EN"
 "http://www.w3.org/TR/2001/REC-SVG-20010904/DTD/svg10.dtd">
<svg version="1.0" xmlns="http://www.w3.org/2000/svg"
 width="72.000000pt" height="72.000000pt" viewBox="0 0 72.000000 72.000000"
 preserveAspectRatio="xMidYMid meet">
<metadata>
Created by potrace 1.14, written by Peter Selinger 2001-2017
</metadata>
<g transform="translate(0.000000,72.000000) scale(0.100000,-0.100000)"
fill="#000000" stroke="none">
<path d="M133 683 c-1 -21 4 -44 11 -53 24 -28 26 -50 6 -62 -26 -17 -26 -58
0 -65 11 -3 20 -13 20 -22 0 -9 7 -26 15 -38 14 -20 13 -24 -15 -53 -16 -17
-30 -35 -30 -40 0 -6 -6 -10 -14 -10 -32 0 -56 -50 -56 -116 0 -36 4 -64 10
-64 6 0 10 28 10 63 0 68 4 78 38 96 27 14 28 12 37 -74 23 -231 323 -328 479
-154 70 76 91 172 61 275 -31 106 -147 194 -259 194 -44 0 -53 9 -60 60 -4 33
-14 52 -36 73 -28 25 -36 27 -123 27 l-92 0 -2 -37z m192 11 c8 -4 22 -19 31
-35 17 -34 26 -31 -105 -31 -46 0 -88 5 -93 10 -12 12 -1 35 13 27 5 -4 9 -2
9 4 0 5 -8 15 -17 20 -13 8 3 10 64 11 45 0 89 -3 98 -6z m-131 -99 c-4 -8 -8
-15 -10 -15 -2 0 -4 7 -4 15 0 8 4 15 10 15 5 0 7 -7 4 -15z m143 -3 c4 -9 14
-23 22 -30 14 -11 13 -12 -9 -10 -14 2 -26 -1 -27 -6 -2 -11 -24 -26 -40 -26
-7 0 -10 7 -7 15 4 8 1 15 -4 15 -12 0 -26 -36 -18 -48 3 -5 -7 -21 -23 -36
-25 -24 -29 -25 -35 -10 -18 48 -17 83 6 117 21 32 26 35 76 36 41 0 54 -4 59
-17z m33 3 c0 -8 -2 -15 -4 -15 -2 0 -6 7 -10 15 -3 8 -1 15 4 15 6 0 10 -7
10 -15z m-205 -54 c3 -5 1 -12 -5 -16 -5 -3 -10 1 -10 9 0 18 6 21 15 7z"/>
<path d="M204 549 c-3 -6 -2 -15 2 -19 12 -12 38 5 30 19 -9 14 -23 14 -32 0z"/>
</g>
</svg>
